<svg version="1.1" id="Layer_1" xmlns="http://www.w3.org/2000/svg" xmlns:xlink="http://www.w3.org/1999/xlink" x="0px" y="0px"
	 width="100%" viewBox="0 0 500 500" enable-background="new 0 0 500 500" xml:space="preserve">
<path fill="#FFFFFF" opacity="1.000000" stroke="none" 
	d="
M286.000000,501.000000 
	C190.666687,501.000000 95.833382,501.000000 1.000051,501.000000 
	C1.000034,334.333405 1.000034,167.666794 1.000017,1.000140 
	C167.666565,1.000094 334.333130,1.000094 500.999756,1.000047 
	C500.999847,167.666519 500.999847,334.333038 500.999939,500.999786 
	C429.500000,501.000000 358.000000,501.000000 286.000000,501.000000 
M203.560974,326.073578 
	C257.297668,335.953064 300.473267,292.462555 295.662201,244.841324 
	C300.612457,263.009003 305.562683,281.176697 310.577179,299.580231 
	C317.752747,297.752838 324.113312,295.896973 330.583588,294.580231 
	C334.061951,293.872406 336.026428,292.262024 337.509308,289.054230 
	C346.096832,270.477814 354.902222,252.002228 363.579742,233.467163 
	C364.390472,231.735428 364.823944,229.827057 365.550171,227.647873 
	C357.520844,225.542099 350.041351,223.580521 342.092865,221.495956 
	C336.319763,236.265930 330.604492,250.887985 324.442169,266.653839 
	C321.314453,250.909729 318.445831,236.469849 315.502319,221.652863 
	C307.319946,223.591660 299.520538,225.439713 291.824158,227.263351 
	C278.478882,191.348907 246.469940,170.725906 209.328888,175.328293 
	C159.130737,181.548721 128.559067,233.599182 148.922989,281.593567 
	C159.061340,305.487976 177.776031,319.655548 203.560974,326.073578 
z"/>
<path fill="#1CA0F5" opacity="1.000000" stroke="none" 
	d="
M203.140366,326.000610 
	C177.776031,319.655548 159.061340,305.487976 148.922989,281.593567 
	C128.559067,233.599182 159.130737,181.548721 209.328888,175.328293 
	C246.469940,170.725906 278.478882,191.348907 291.824158,227.263351 
	C299.520538,225.439713 307.319946,223.591660 315.502319,221.652863 
	C318.445831,236.469849 321.314453,250.909729 324.442169,266.653839 
	C330.604492,250.887985 336.319763,236.265930 342.092865,221.495956 
	C350.041351,223.580521 357.520844,225.542099 365.550171,227.647873 
	C364.823944,229.827057 364.390472,231.735428 363.579742,233.467163 
	C354.902222,252.002228 346.096832,270.477814 337.509308,289.054230 
	C336.026428,292.262024 334.061951,293.872406 330.583588,294.580231 
	C324.113312,295.896973 317.752747,297.752838 310.577179,299.580231 
	C305.562683,281.176697 300.612457,263.009003 295.662201,244.841324 
	C300.473267,292.462555 257.297668,335.953064 203.140366,326.000610 
M192.785126,209.259094 
	C190.578857,212.895767 188.372574,216.532425 185.486282,221.290009 
	C190.147079,221.690430 193.482956,221.977020 197.300644,222.305008 
	C196.860992,228.954819 197.465317,235.682480 195.716232,241.729416 
	C194.025772,247.573685 189.910492,252.716583 186.680557,258.488831 
	C189.587906,259.081543 191.814743,259.535492 194.430359,260.068726 
	C193.422318,271.269775 195.113327,282.652679 187.162659,292.105408 
	C184.593994,295.159363 185.986465,296.758728 189.806702,296.977142 
	C203.759506,297.774994 217.732376,298.405945 231.642654,299.693878 
	C239.813843,300.450500 245.463272,298.002472 248.851837,290.368439 
	C250.397797,286.885590 252.497864,283.648712 254.931442,279.240967 
	C242.348267,279.240967 231.285263,279.240967 219.662521,279.240967 
	C220.274963,272.244934 220.832474,265.876221 221.441772,258.916046 
	C225.473068,258.916046 229.107498,258.745056 232.717987,258.965851 
	C236.086288,259.171814 237.900528,257.757812 239.069473,254.680618 
	C240.602325,250.645401 242.602295,246.789902 244.212860,242.781387 
	C246.056900,238.191757 245.280807,237.167282 240.271042,237.347412 
	C234.849350,237.542358 229.431259,237.837067 223.581711,238.108185 
	C224.196503,231.926727 224.733292,226.529495 225.392044,219.905945 
	C233.517395,219.905945 241.316376,220.002655 249.109299,219.828094 
	C250.758636,219.791122 253.364716,219.208115 253.861420,218.117050 
	C256.713074,211.853287 259.062073,205.360657 261.963806,197.972458 
	C258.849915,197.972458 257.085510,197.906967 255.327164,197.982712 
	C239.706604,198.655655 224.084122,199.895401 208.468613,199.809372 
	C200.966492,199.768051 195.676331,201.167328 192.785126,209.259094 
z"/>
<path fill="#FCFEFF" opacity="1.000000" stroke="none" 
	d="
M192.959534,208.939026 
	C195.676331,201.167328 200.966492,199.768051 208.468613,199.809372 
	C224.084122,199.895401 239.706604,198.655655 255.327164,197.982712 
	C257.085510,197.906967 258.849915,197.972458 261.963806,197.972458 
	C259.062073,205.360657 256.713074,211.853287 253.861420,218.117050 
	C253.364716,219.208115 250.758636,219.791122 249.109299,219.828094 
	C241.316376,220.002655 233.517395,219.905945 225.392044,219.905945 
	C224.733292,226.529495 224.196503,231.926727 223.581711,238.108185 
	C229.431259,237.837067 234.849350,237.542358 240.271042,237.347412 
	C245.280807,237.167282 246.056900,238.191757 244.212860,242.781387 
	C242.602295,246.789902 240.602325,250.645401 239.069473,254.680618 
	C237.900528,257.757812 236.086288,259.171814 232.717987,258.965851 
	C229.107498,258.745056 225.473068,258.916046 221.441772,258.916046 
	C220.832474,265.876221 220.274963,272.244934 219.662521,279.240967 
	C231.285263,279.240967 242.348267,279.240967 254.931442,279.240967 
	C252.497864,283.648712 250.397797,286.885590 248.851837,290.368439 
	C245.463272,298.002472 239.813843,300.450500 231.642654,299.693878 
	C217.732376,298.405945 203.759506,297.774994 189.806702,296.977142 
	C185.986465,296.758728 184.593994,295.159363 187.162659,292.105408 
	C195.113327,282.652679 193.422318,271.269775 194.430359,260.068726 
	C191.814743,259.535492 189.587906,259.081543 186.680557,258.488831 
	C189.910492,252.716583 194.025772,247.573685 195.716232,241.729416 
	C197.465317,235.682480 196.860992,228.954819 197.300644,222.305008 
	C193.482956,221.977020 190.147079,221.690430 185.486282,221.290009 
	C188.372574,216.532425 190.578857,212.895767 192.959534,208.939026 
z"/>
</svg>