<svg width="55" height="53" viewBox="0 0 55 53" fill="none" xmlns="http://www.w3.org/2000/svg">
<ellipse cx="27.5" cy="26.5" rx="27.5" ry="26.5" fill="#F1F1F1"/>
<path d="M49 28.7299C49 22.7016 46.6821 16.9201 42.5563 12.6574C38.4305 8.39475 32.8348 6 27 6C21.1652 6 15.5695 8.39475 11.4437 12.6574C7.31785 16.9201 5 22.7016 5 28.7299H9.75464C9.75464 24.0044 11.5716 19.4725 14.8057 16.131C18.0398 12.7896 22.4262 10.9124 27 10.9124C31.5738 10.9124 35.9602 12.7896 39.1943 16.131C42.4284 19.4725 44.2454 24.0044 44.2454 28.7299H49Z" fill="#3F85FF"/>
<path d="M25.4161 21.7697C25.4089 21.5225 25.5901 21.3101 25.8353 21.2781C26.0765 21.2466 26.3034 21.3999 26.3641 21.6355L29.2735 32.9244C29.5416 33.9646 28.8385 35.0048 27.7733 35.1439C26.7234 35.2809 25.7851 34.4808 25.7544 33.4225L25.4161 21.7697Z" fill="black"/>
</svg>
