<svg width="55" height="53" viewBox="0 0 55 53" fill="none" xmlns="http://www.w3.org/2000/svg">
<ellipse cx="27.5" cy="26.5" rx="27.5" ry="26.5" fill="#F1F1F1"/>
<path fill-rule="evenodd" clip-rule="evenodd" d="M39.1 2C39.7831 2 40.4568 2.17954 41.0677 2.52441C41.6787 2.86928 42.2102 3.37 42.62 3.98692L48.5336 12.8883C48.8304 13.3274 48.9884 13.866 48.9824 14.4183H49V16.9019C49.0022 19.3223 48.2196 21.6599 46.8 23.4736V41.7384C46.8 43.0558 46.3364 44.3193 45.5113 45.2508C44.6861 46.1824 43.5669 46.7057 42.4 46.7057H11.6C10.4331 46.7057 9.3139 46.1824 8.48874 45.2508C7.66358 44.3193 7.20001 43.0558 7.20001 41.7384V23.4736C5.7795 21.6605 4.99682 19.3225 5.00001 16.9019V14.4183H5.01761C5.01157 13.866 5.16957 13.3274 5.46641 12.8883L11.38 3.98692C11.7899 3.37 12.3213 2.86928 12.9323 2.52441C13.5432 2.17954 14.2169 2 14.9 2H39.1ZM33.6 23.4736C32.7751 24.5319 31.7596 25.3792 30.6215 25.9592C29.4833 26.5391 28.2487 26.8382 27 26.8365C25.7513 26.8382 24.5167 26.5391 23.3785 25.9592C22.2404 25.3792 21.225 24.5319 20.4 23.4736C19.3883 24.7725 18.093 25.7499 16.643 26.3085C15.1929 26.867 13.6386 26.9874 12.1346 26.6577L11.6 26.5236V41.7384H42.4V26.5236L41.8654 26.6577C40.3612 26.9871 38.8068 26.8664 37.3567 26.3073C35.9067 25.7483 34.6115 24.773 33.6 23.4736ZM44.6 16.9019H35.8C35.7949 18.1909 36.2338 19.4316 37.024 20.362C37.8143 21.2924 38.8939 21.8396 40.0349 21.8879C41.1758 21.9363 42.2888 21.4821 43.1386 20.6212C43.9884 19.7603 44.5085 18.5602 44.589 17.2744L44.6 16.9019ZM31.4 16.9019H22.6C22.5949 18.1909 23.0338 19.4316 23.824 20.362C24.6143 21.2924 25.6939 21.8396 26.8349 21.8879C27.9758 21.9363 29.0888 21.4821 29.9386 20.6212C30.7884 19.7603 31.3085 18.5602 31.389 17.2744L31.4 16.9019ZM18.2 16.9019H9.40001C9.3949 18.1909 9.83382 19.4316 10.624 20.362C11.4143 21.2924 12.4939 21.8396 13.6349 21.8879C14.7758 21.9363 15.8888 21.4821 16.7386 20.6212C17.5884 19.7603 18.1085 18.5602 18.189 17.2744L18.2 16.9019ZM39.1 6.9673H14.9L11.6 11.9346H42.4L39.1 6.9673Z" fill="#4497FF"/>
</svg>
