<svg width="55" height="53" viewBox="0 0 55 53" fill="none" xmlns="http://www.w3.org/2000/svg">
<ellipse cx="27.5" cy="26.5" rx="27.5" ry="26.5" fill="#F1F1F1"/>
<path d="M11.2857 10.3865C11.2857 8.69272 11.948 7.06828 13.1268 5.87057C14.3056 4.67286 15.9044 4 17.5714 4C19.2385 4 20.8373 4.67286 22.0161 5.87057C23.1949 7.06828 23.8571 8.69272 23.8571 10.3865C23.8571 12.0803 23.1949 13.7048 22.0161 14.9025C20.8373 16.1002 19.2385 16.7731 17.5714 16.7731C15.9044 16.7731 14.3056 16.1002 13.1268 14.9025C11.948 13.7048 11.2857 12.0803 11.2857 10.3865ZM32.5911 15.4447L32.7231 15.5468C34.0566 16.5511 35.727 16.9788 37.3696 16.7364C39.0123 16.494 40.4939 15.6013 41.4911 14.253C42.4883 12.9048 42.9202 11.2106 42.6925 9.53999C42.4648 7.86943 41.596 6.3582 40.2756 5.3361C38.9553 4.314 37.2907 3.86402 35.645 4.08436C33.9994 4.30469 32.5063 5.17746 31.4916 6.51219C30.477 7.84692 30.0231 9.53524 30.2291 11.2087C30.4351 12.8822 31.2842 14.4049 32.5911 15.4447ZM21.5566 19.9663C21.9513 19.2068 22.4928 18.5361 23.1486 17.9941C23.8044 17.4522 24.561 17.0502 25.3732 16.8122C26.1854 16.5743 27.0366 16.5052 27.8757 16.6092C28.7148 16.7131 29.5246 16.988 30.2567 17.4173C30.9889 17.8466 31.6283 18.4215 32.1367 19.1077C32.6451 19.7939 33.012 20.5772 33.2156 21.4108C33.4191 22.2444 33.4551 23.1112 33.3213 23.9592C33.1876 24.8073 32.8869 25.6192 32.4371 26.3465C31.572 27.7455 30.2068 28.7494 28.6284 29.1473C27.0501 29.5452 25.3814 29.3061 23.9729 28.4802C22.5644 27.6543 21.5258 26.3059 21.0752 24.7183C20.6246 23.1306 20.7972 21.4274 21.5566 19.9663ZM9.71429 19.9663H18.1057C17.5471 21.5871 17.4257 23.3302 17.754 25.0148C18.0822 26.6993 18.8483 28.2639 19.9726 29.5461H19.1429C17.5225 29.5459 15.9417 30.0544 14.6168 31.0022C13.2919 31.9499 12.2876 33.2906 11.7414 34.8405C10.6865 34.41 9.69872 33.8259 8.80914 33.1066C6.44571 31.1747 5 28.3199 5 24.7562C5 23.4859 5.49668 22.2675 6.38078 21.3692C7.26488 20.471 8.46398 19.9663 9.71429 19.9663ZM34.8571 29.5461C38.2671 29.5461 41.1711 31.7527 42.2586 34.8405C43.3271 34.3967 44.314 33.8187 45.1909 33.1066C47.5543 31.1747 49 28.3199 49 24.7562C49 23.4859 48.5033 22.2675 47.6192 21.3692C46.7351 20.471 45.536 19.9663 44.2857 19.9663H35.8943C36.24 20.9658 36.4286 22.0419 36.4286 23.1596C36.4315 25.5166 35.5762 27.7914 34.0274 29.5461H34.8571ZM39.2163 35.7027C39.4457 36.2647 39.5714 36.8842 39.5714 37.5293C39.5714 41.093 38.1289 43.9477 35.7623 45.8797C33.4334 47.7797 30.3094 48.7057 27 48.7057C23.6906 48.7057 20.5666 47.7797 18.2377 45.8797C15.8743 43.9477 14.4286 41.093 14.4286 37.5293C14.4269 36.8998 14.5477 36.2762 14.784 35.6943C15.0204 35.1124 15.3676 34.5837 15.8057 34.1385C16.2437 33.6934 16.7641 33.3407 17.3368 33.1006C17.9095 32.8604 18.5233 32.7377 19.1429 32.7394H34.8571C35.7909 32.7392 36.7037 33.0207 37.4798 33.5483C38.2558 34.0758 38.8602 34.8257 39.2163 35.7027Z" fill="#3F85FF"/>
</svg>
