<svg width="55" height="53" viewBox="0 0 55 53" fill="none" xmlns="http://www.w3.org/2000/svg">
<ellipse cx="27.5" cy="26.5" rx="27.5" ry="26.5" fill="#F1F1F1"/>
<path d="M47.7334 18.8457C47.1791 19.346 46.3292 19.321 45.8052 18.789L34.3517 7.15887C33.8324 6.63154 33.8324 5.78501 34.3517 5.25767C35.1961 4.40027 36.2424 3.98126 37.4906 4.00064C38.7388 4.02003 39.7851 4.45768 40.6295 5.31359L47.7334 12.527C48.5778 13.3844 49 14.4379 49 15.6874C49 16.937 48.5778 17.9898 47.7334 18.8457ZM19.5932 47.4196C18.7489 48.277 17.7121 48.7057 16.483 48.7057C15.2538 48.7057 14.2163 48.277 13.3705 47.4196L6.26658 40.2062C5.42219 39.3488 5 38.2961 5 37.048C5 35.7999 5.42219 34.7464 6.26658 33.8875C6.75101 33.3956 7.54436 33.3956 8.02879 33.8875L19.5932 45.6302C20.082 46.1265 20.082 46.9233 19.5932 47.4196ZM27.5782 45.8539C27.1377 46.3012 26.6237 46.5249 26.0363 46.5249C25.4489 46.5249 24.9349 46.3012 24.4944 45.8539L7.80851 28.9108C7.36796 28.4635 7.14768 27.9416 7.14768 27.3452C7.14768 26.7487 7.36796 26.2268 7.80851 25.7795L10.9474 22.5362C11.388 22.0889 11.9115 21.8652 12.518 21.8652C13.1245 21.8652 13.6473 22.0889 14.0864 22.5362C15.9938 24.4731 19.1176 24.4731 21.025 22.5362L23.2278 20.2995C25.1524 18.3453 25.1524 15.2082 23.2278 13.2539C22.7872 12.8066 22.567 12.2847 22.567 11.6882C22.567 11.0918 22.7872 10.5699 23.2278 10.1225L26.3667 6.87928C26.8073 6.43194 27.3308 6.20827 27.9373 6.20827C28.5438 6.20827 29.0665 6.43194 29.5056 6.87928L46.1915 23.8223C46.632 24.2697 46.8523 24.8013 46.8523 25.4171C46.8523 26.033 46.632 26.5638 46.1915 27.0096L42.9975 30.197C42.5569 30.6443 42.043 30.868 41.4556 30.868C40.8682 30.868 40.3542 30.6443 39.9136 30.197C38.0062 28.2601 34.8824 28.2601 32.975 30.197L30.7722 32.4337C28.8476 34.3879 28.8476 37.525 30.7722 39.4793C31.2128 39.9266 31.433 40.4575 31.433 41.0718C31.433 41.6862 31.2128 42.2178 30.7722 42.6666L27.5782 45.8539Z" fill="#3F85FF"/>
</svg>
