<svg width="183" height="36" viewBox="0 0 183 36" fill="none" xmlns="http://www.w3.org/2000/svg">
<g clip-path="url(#scissors_1)">
<path d="M60.4559 34.6908V33.5459C60.3574 33.6453 60.1895 33.7484 59.956 33.9177C59.5546 34.1865 57.9197 34.8601 56.3506 34.8601C54.2816 34.8601 52.5446 34.1533 51.1433 32.7398C49.742 31.2931 49.0414 29.574 49.0414 27.5235C49.0414 25.4731 49.742 23.7871 51.1433 22.3404C52.5774 20.8937 54.3144 20.187 56.3506 20.187C58.3868 20.187 60.0545 20.8606 61.4886 22.1748C62.9227 23.489 63.6562 25.3075 63.6562 27.6303V34.6982H60.4523L60.4559 34.6908ZM56.3506 31.7606C58.6532 31.7606 60.4559 29.9752 60.4559 27.5199C60.4559 25.0645 58.7189 23.2791 56.3506 23.2791C53.9823 23.2791 52.2453 25.0976 52.2453 27.5199C52.2453 29.9421 54.048 31.7606 56.3506 31.7606Z" fill="#F0F0F0"/>
<path d="M42.4145 21.6373V12.2798L45.6185 14.8345V27.564C45.6185 29.8869 44.885 31.7054 43.4509 33.0159C42.0168 34.33 40.2798 35.0037 38.3129 35.0037C36.346 35.0037 34.5433 34.2969 33.1056 32.8502C31.7043 31.4035 31.0037 29.6844 31.0037 27.6671C31.0037 25.6498 31.7043 23.8976 33.1056 22.484C34.5068 21.0373 36.2438 20.3305 38.3129 20.3305C39.882 20.3305 41.349 20.868 41.9839 21.306L42.4182 21.6447L42.4145 21.6373ZM38.3092 31.9041C40.6775 31.9041 42.4145 30.0856 42.4145 27.6634C42.4145 25.2412 40.6119 23.4227 38.3092 23.4227C36.0066 23.4227 34.204 25.2081 34.204 27.6634C34.204 30.1188 36.0066 31.9041 38.3092 31.9041Z" fill="#F0F0F0"/>
<path d="M100.958 12.0147L102.224 15.1106H99.8667C98.3304 15.1106 97.5641 15.9867 97.5641 17.7721V20.2311H100.958L102.224 23.327H97.5641V34.5693H94.3601V17.8052C94.3601 13.6639 96.6299 12.0147 99.8667 12.0147H100.958Z" fill="#F0F0F0"/>
<path d="M135.387 14.5547V21.0226C136.322 20.382 137.391 20.0471 138.559 20.0471C140.128 20.0471 141.496 20.6176 142.598 21.7993C143.733 22.9441 144.299 24.6264 144.299 26.8167V34.5583H141.095V26.8167C141.095 24.3945 139.96 23.1466 138.226 23.1466C136.493 23.1466 135.391 24.3577 135.391 26.8167V34.5583H132.187V12L135.391 14.5547H135.387Z" fill="#F0F0F0"/>
<path d="M147.327 14.5289C148.094 13.7559 149.364 13.7559 150.13 14.5289C150.896 15.302 150.896 16.583 150.13 17.3561C149.364 18.1291 148.094 18.1291 147.327 17.3561C146.561 16.583 146.561 15.302 147.327 14.5289ZM147.127 34.6944V20.3562L150.331 22.911V34.6981H147.127V34.6944Z" fill="#F0F0F0"/>
<path d="M85.1861 34.919L80.4459 27.9506V34.919H77.2419V12.3608L80.4459 14.9155V26.7689L84.719 20.5735H88.4886L83.8177 27.4058L88.9922 34.9117H85.1861V34.919Z" fill="#F0F0F0"/>
<path d="M174.032 34.3116H170.828V26.5701C170.828 24.2804 171.43 22.5981 172.598 21.4864C173.798 20.3747 175.232 19.8041 176.871 19.8041C178.509 19.8041 179.94 20.3747 181.144 21.4864C182.345 22.5981 182.947 24.3135 182.947 26.5701V34.3116H179.743V26.5701C179.743 24.181 178.608 22.8999 176.875 22.8999C175.141 22.8999 174.039 24.1442 174.039 26.5701V34.3116H174.032Z" fill="#F0F0F0"/>
<path d="M155.724 22.4803C157.158 21.0336 158.862 20.3268 160.895 20.3268C162.928 20.3268 164.599 21.0336 166.033 22.4803C167.467 23.927 168.168 25.6461 168.168 27.6634C168.168 29.6807 167.467 31.433 166.033 32.8797C164.599 34.2932 162.895 35 160.895 35C158.895 35 157.158 34.2932 155.724 32.8797C154.29 31.433 153.589 29.7138 153.589 27.6634C153.589 25.613 154.29 23.927 155.724 22.4803ZM156.793 27.6634C156.793 28.9077 157.195 29.92 157.961 30.7262C158.76 31.4992 159.731 31.9041 160.899 31.9041C162.066 31.9041 163.033 31.4992 163.803 30.7262C164.602 29.9163 165.004 28.9077 165.004 27.6634C165.004 26.4192 164.602 25.4069 163.803 24.6338C163.037 23.8276 162.066 23.4227 160.899 23.4227C159.731 23.4227 158.764 23.8276 157.961 24.6338C157.195 25.4069 156.793 26.4192 156.793 27.6634Z" fill="#F0F0F0"/>
<path d="M70.5604 34.6908H67.3893V26.1394C67.3893 21.9981 69.6919 20.3489 72.7973 20.3489H73.5636V23.4448H72.9615C71.3595 23.4448 70.5604 24.3541 70.5604 26.1394V34.6908Z" fill="#F0F0F0"/>
<path d="M125.027 35C123.692 35 122.225 34.5951 121.557 34.227L121.057 33.9582V30.8292C122.225 31.536 123.528 31.9078 125.027 31.9078C126.33 31.9078 126.962 31.4698 126.962 30.5605C126.962 28.3408 120.889 29.1469 120.889 24.5344C120.889 21.9429 122.991 20.3268 125.896 20.3268C127.264 20.3268 128.633 20.6986 129.166 21.0005L129.567 21.2361V24.2326C128.6 23.6951 127.363 23.4227 125.896 23.4227C124.695 23.4227 124.093 23.7945 124.093 24.5344C124.093 25.2743 125.027 25.7124 126.228 26.1505C127.965 26.6548 130.198 27.7334 130.165 30.5605C130.165 33.2883 128.129 35.0037 125.027 35.0037V35Z" fill="#F0F0F0"/>
<path d="M114.992 34.6908V33.5459C114.894 33.6453 114.726 33.7484 114.492 33.9177C114.091 34.1865 112.456 34.8601 110.887 34.8601C108.818 34.8601 107.081 34.1533 105.68 32.7398C104.278 31.2931 103.578 29.574 103.578 27.5235C103.578 25.4731 104.278 23.7871 105.68 22.3404C107.114 20.8937 108.851 20.187 110.887 20.187C112.923 20.187 114.591 20.8606 116.025 22.1748C117.459 23.489 118.193 25.3075 118.193 27.6303V34.6982H114.989L114.992 34.6908ZM110.887 31.7606C113.19 31.7606 114.992 29.9752 114.992 27.5199C114.992 25.0645 113.255 23.2791 110.887 23.2791C108.519 23.2791 106.782 25.0976 106.782 27.5199C106.782 29.9421 108.584 31.7606 110.887 31.7606Z" fill="#F0F0F0"/>
</g>
<path d="M15.8659 9.63792L10.2549 20.6197C10.2106 20.7059 10.2106 20.8131 10.2549 20.8994L11.717 23.7624C11.7603 23.8475 11.8398 23.899 11.9253 23.8982C12.0105 23.897 12.0893 23.844 12.1313 23.7578C12.1537 23.7117 14.3941 19.1311 15.9743 15.8742C16.6213 14.5404 16.8035 13.3064 16.8035 12.3397C16.8035 12.0255 16.784 11.7389 16.7555 11.487C16.6277 10.3687 16.2949 9.67235 16.2805 9.64333C16.2386 9.55707 16.1601 9.50291 16.0746 9.50175C15.989 9.50098 15.9092 9.55282 15.8659 9.63792Z" fill="#F0F0F0"/>
<path d="M6.91137 33.0366C6.94625 32.9797 6.98047 32.9221 7.01334 32.8648C7.98507 31.1848 8.89845 29.7283 9.80544 28.4126L9.93425 28.2258C9.96846 28.1759 9.9859 28.1148 9.9859 28.054C9.9859 28.0037 9.97417 27.9531 9.95002 27.9082L9.07991 26.2973C9.03966 26.2227 8.97023 26.1747 8.89409 26.1685C8.81794 26.162 8.74348 26.1983 8.69451 26.2656L7.64629 27.6993C7.53493 27.4088 7.39506 27.1422 7.22969 26.9047C7.06365 26.6668 6.87212 26.4575 6.65678 26.2811C5.86282 25.63 4.83607 25.4823 3.76606 25.8633C2.71818 26.2358 1.7508 27.0761 1.04171 28.2273C0.332274 29.3786 -0.0366968 30.7082 0.00288372 31.972C0.0427997 33.2629 0.502001 34.3325 1.29596 34.9828C2.08992 35.6339 3.11667 35.7816 4.18668 35.4006C5.23456 35.0281 6.20194 34.1878 6.91137 33.0366ZM2.97075 33.3557C2.96941 33.3557 2.96774 33.3557 2.96639 33.3553C2.89025 33.3503 2.8131 33.3379 2.73696 33.3155C2.70778 33.3066 2.67893 33.2965 2.65042 33.2849C2.62459 33.2745 2.59876 33.2625 2.57294 33.249C2.54744 33.2358 2.52229 33.2207 2.4978 33.2045C2.47298 33.1882 2.44849 33.1704 2.42434 33.1507C2.37235 33.1082 2.32606 33.0606 2.28514 33.0095C2.26468 32.984 2.24522 32.9573 2.22677 32.9302C2.19927 32.8892 2.17445 32.8463 2.15231 32.8022C2.13721 32.7728 2.12346 32.743 2.11072 32.7124C2.03961 32.5457 1.99868 32.3658 1.97554 32.1983C1.9695 32.1526 1.96447 32.1078 1.96044 32.0644C1.95172 31.9635 1.9487 31.8699 1.9487 31.7909C1.9487 31.6977 1.95239 31.6037 1.95977 31.5089C1.9799 31.2563 2.02619 30.9987 2.0973 30.7426C2.15264 30.543 2.22275 30.3441 2.30728 30.1488C2.3274 30.102 2.34853 30.0552 2.37067 30.0084C2.3965 29.953 2.42401 29.8977 2.45218 29.8432C2.47164 29.8057 2.49143 29.7685 2.51189 29.7318C2.54946 29.6633 2.58904 29.5956 2.63029 29.5287C2.88656 29.1128 3.19583 28.7558 3.52991 28.4826C3.56715 28.4525 3.60438 28.4231 3.64228 28.3948C3.73654 28.3244 3.83247 28.2606 3.92941 28.2041C3.96798 28.1817 4.00689 28.16 4.0458 28.1399C4.04614 28.1395 4.04614 28.1399 4.04614 28.1399C4.08505 28.1198 4.12429 28.1008 4.16354 28.0826C4.16354 28.0826 4.16354 28.0823 4.16387 28.0826C4.22257 28.056 4.28194 28.032 4.34098 28.0111C4.3762 27.9987 4.41511 27.9855 4.45737 27.9732C4.74819 27.8896 5.18861 27.8355 5.52773 28.1132C5.94198 28.4525 6.0037 29.1105 6.0037 29.473C6.0037 30.2184 5.76185 31.0219 5.32244 31.7348C5.19431 31.943 5.05309 32.1364 4.90148 32.3116C4.88471 32.3314 4.86794 32.3503 4.85083 32.3697C4.83372 32.389 4.81662 32.4076 4.79951 32.4261C4.76496 32.4633 4.73008 32.4996 4.69452 32.5348C4.67674 32.5526 4.65897 32.57 4.64119 32.5871C4.6053 32.6215 4.56941 32.6548 4.53285 32.6873C4.49628 32.7198 4.45939 32.7511 4.42249 32.7813C4.38526 32.8114 4.34802 32.8408 4.31012 32.8691C4.25377 32.9112 4.19641 32.9511 4.13905 32.9886C4.024 33.0633 3.90694 33.1275 3.7892 33.1813C3.78886 33.1813 3.78886 33.1813 3.78886 33.1813C3.73016 33.208 3.67079 33.2319 3.61176 33.2528C3.56782 33.2687 3.51784 33.2845 3.46283 33.2996C3.46283 33.2996 3.46283 33.2996 3.46249 33.2996C3.44069 33.3054 3.41822 33.3112 3.39507 33.3167C3.383 33.3194 3.37126 33.3221 3.35918 33.3244C3.24044 33.3492 3.10727 33.3642 2.97075 33.3557Z" fill="#F0F0F0"/>
<path d="M4.1958 9.54312C4.11932 9.53384 4.04385 9.5671 3.99253 9.63286C3.97576 9.65453 3.58633 10.1625 3.36997 11.0727C3.17274 11.9013 3.08486 13.2406 3.78456 14.9176C3.78591 14.921 3.78758 14.9241 3.78892 14.9268C4.90926 17.3686 9.01122 25.181 11.3562 29.6204C11.4592 29.8165 11.5759 30.0649 11.7114 30.3531C11.8885 30.731 12.0901 31.16 12.3279 31.6111C12.441 31.8273 12.554 32.054 12.6741 32.3063C12.8069 32.5844 12.9592 32.854 13.1269 33.1078C14.6458 35.4018 17.2088 36.0993 18.8403 34.6629C19.6383 33.96 20.0958 32.8629 20.128 31.5732C20.1293 31.5244 20.13 31.4757 20.13 31.427C20.13 30.2053 19.7473 28.9577 19.0456 27.8974C18.3153 26.7941 17.3248 26.0227 16.2561 25.7241C15.1687 25.4196 14.1302 25.6394 13.3322 26.3423C12.8955 26.7272 12.556 27.2382 12.336 27.839L11.4283 26.343L11.6829 24.6904C11.6923 24.6274 11.6829 24.562 11.6557 24.5063L4.37827 9.68122C4.34037 9.60385 4.27228 9.55279 4.1958 9.54312ZM15.9338 27.9515C15.9519 27.9581 15.97 27.9647 15.9881 27.9717C16.0965 28.0138 16.2045 28.0653 16.3108 28.1248C16.3108 28.1252 16.3112 28.1248 16.3112 28.1248C16.3464 28.1446 16.3816 28.1655 16.4168 28.1875C16.4168 28.1879 16.4172 28.1875 16.4172 28.1875C16.4698 28.2204 16.5218 28.2552 16.5735 28.292H16.5738C16.608 28.3163 16.6422 28.3419 16.6761 28.3682C16.9475 28.5778 17.2007 28.8421 17.4171 29.1453C17.4439 29.1833 17.4704 29.2216 17.4962 29.2606C17.5512 29.3442 17.6036 29.4289 17.6525 29.5152C17.6891 29.5802 17.724 29.6455 17.7572 29.7117C17.7901 29.7778 17.8213 29.8448 17.8508 29.9121C17.8605 29.9345 17.8702 29.957 17.8796 29.9794C17.8981 30.0246 17.9162 30.0699 17.9333 30.1156C18.0953 30.5473 18.1808 30.9952 18.1808 31.4297C18.1808 31.7976 18.1131 32.4749 17.6579 32.8761C17.6304 32.9005 17.6022 32.9229 17.5727 32.9442C17.5435 32.9654 17.5137 32.9852 17.4828 33.0034C17.4057 33.0486 17.3238 33.085 17.2376 33.1117C17.2031 33.1221 17.1678 33.1314 17.132 33.1391C17.0961 33.1469 17.0598 33.1527 17.0226 33.1573C16.8519 33.1786 16.6681 33.1674 16.4762 33.1233C16.453 33.1179 16.4299 33.1121 16.4068 33.1059C16.3749 33.0974 16.3424 33.0877 16.3098 33.0776C16.2863 33.0699 16.2625 33.0618 16.2387 33.0533C16.2206 33.0467 16.2025 33.0401 16.1844 33.0331C16.0941 32.9983 16.0042 32.9569 15.915 32.9094C15.8852 32.8935 15.8556 32.8769 15.8261 32.8598C15.7671 32.8254 15.7087 32.7887 15.651 32.7492C15.6161 32.7256 15.5816 32.7008 15.5474 32.6757C15.4354 32.5925 15.3263 32.5001 15.2213 32.3995C15.1821 32.3616 15.1435 32.3229 15.1053 32.283C15.0741 32.2505 15.0436 32.2173 15.0134 32.1832C14.9986 32.1662 14.9835 32.1492 14.9688 32.1318C14.954 32.1148 14.9393 32.097 14.9245 32.0792C14.8953 32.044 14.8665 32.008 14.8383 31.9713C14.7823 31.8978 14.7279 31.8219 14.6763 31.7438C14.6347 31.6815 14.5951 31.6181 14.5572 31.5538C14.1912 30.9333 13.9917 30.2386 13.9917 29.5755C13.9917 29.5411 13.9923 29.5036 13.9937 29.4641C13.9947 29.4378 13.996 29.4107 13.998 29.3825C14.0014 29.326 14.0071 29.2664 14.0148 29.2045C14.0185 29.1759 14.0229 29.1469 14.0279 29.1175C14.046 29.0034 14.0732 28.8838 14.1131 28.7651C14.1242 28.7318 14.1362 28.6985 14.1493 28.6657C14.1624 28.6328 14.1765 28.5999 14.1919 28.5678C14.2117 28.526 14.2335 28.4846 14.2573 28.4444C14.2701 28.4223 14.2835 28.4011 14.2976 28.3798C14.3177 28.3496 14.3392 28.3198 14.3616 28.2912C14.373 28.2769 14.3848 28.2622 14.3969 28.2486C14.4331 28.2065 14.472 28.1666 14.5146 28.1291C14.5421 28.1047 14.5706 28.0823 14.5998 28.061C14.629 28.0397 14.6588 28.02 14.6897 28.0018C14.7514 27.9655 14.8161 27.9353 14.8839 27.9105C14.9007 27.9047 14.9178 27.8989 14.9352 27.8935C14.9698 27.8831 15.0047 27.8738 15.0406 27.866C15.3082 27.8092 15.6118 27.8366 15.9338 27.9515ZM10.4938 24.446C10.4938 24.7048 10.3113 24.9152 10.0869 24.9152C9.86253 24.9152 9.68006 24.7048 9.68006 24.446C9.68006 24.1872 9.86253 23.9767 10.0869 23.9767C10.3113 23.9767 10.4938 24.1872 10.4938 24.446Z" fill="#F0F0F0"/>
<path d="M9.81049 19.2982C9.81049 19.4506 9.91749 19.574 10.0496 19.574C10.1818 19.574 10.2888 19.4506 10.2888 19.2982V18.3928C10.2888 18.2405 10.1818 18.1171 10.0496 18.1171C9.91749 18.1171 9.81049 18.2405 9.81049 18.3928V19.2982Z" fill="#F0F0F0"/>
<path d="M9.81049 3.13483V5.0415C9.81049 5.19388 9.91749 5.31726 10.0496 5.31726C10.1815 5.31726 10.2885 5.19388 10.2885 5.0415V3.13483C10.2885 2.98245 10.1815 2.85908 10.0496 2.85908C9.91749 2.85908 9.81049 2.98245 9.81049 3.13483Z" fill="#F0F0F0"/>
<path d="M9.81049 6.94954V8.85621C9.81049 9.00859 9.91749 9.13196 10.0496 9.13196C10.1815 9.13196 10.2885 9.00859 10.2885 8.85621V6.94954C10.2885 6.79716 10.1815 6.67379 10.0496 6.67379C9.91749 6.67379 9.81049 6.79716 9.81049 6.94954Z" fill="#F0F0F0"/>
<path d="M9.81049 12.6709C9.81049 12.8229 9.91749 12.9462 10.0496 12.9462C10.1815 12.9462 10.2885 12.8229 10.2885 12.6709V10.7638C10.2885 10.6118 10.1815 10.4884 10.0496 10.4884C9.91749 10.4884 9.81049 10.6118 9.81049 10.7638V12.6709Z" fill="#F0F0F0"/>
<path d="M9.81049 16.4851C9.81049 16.6375 9.91749 16.7609 10.0496 16.7609C10.1815 16.7609 10.2885 16.6375 10.2885 16.4851V14.5784C10.2885 14.4261 10.1815 14.3027 10.0496 14.3027C9.91749 14.3027 9.81049 14.4261 9.81049 14.5784V16.4851Z" fill="#F0F0F0"/>
<path d="M9.81049 0.321857V1.22724C9.81049 1.37962 9.91749 1.50299 10.0496 1.50299C10.1818 1.50299 10.2888 1.37962 10.2888 1.22724V0.321857C10.2888 0.169478 10.1818 0.0461094 10.0496 0.0461094C9.91749 0.0461094 9.81049 0.169478 9.81049 0.321857Z" fill="#F0F0F0"/>
<defs>
<clipPath id="scissors_1">
<rect width="151.939" height="23" fill="#F0F0F0" transform="translate(31 12)"/>
</clipPath>
</defs>
</svg>
