<svg xmlns="http://www.w3.org/2000/svg" width="202" height="100" viewBox="0 0 202 100" fill="none"><g clip-path="url(#clip0_530_33)"><path d="M116.405 40.3197C116.394 40.2715 116.372 40.2263 116.317 40.2006C116.288 40.1821 116.249 40.1777 116.213 40.1855C116.153 40.1981 116.111 40.2322 116.082 40.2759L116.07 40.2783C115.518 41.2729 114.94 42.2606 114.269 43.1682C113.927 43.6173 113.567 44.0446 113.156 44.4082C112.954 44.5764 112.737 44.7353 112.519 44.8321L112.345 44.8943C112.201 44.9249 112.083 44.9001 111.984 44.8462C111.841 44.7645 111.723 44.5638 111.636 44.3319C111.582 44.1929 111.539 44.0519 111.506 43.8963L111.449 43.5702C111.36 43.0379 111.353 42.476 111.36 41.9233C111.377 40.8296 111.435 40.4538 111.544 39.3786C111.581 39.083 111.591 38.7802 111.585 38.4555C111.587 38.2922 111.578 38.1313 111.542 37.9636L111.531 37.8532C111.5 37.7093 111.441 37.547 111.342 37.3798C111.318 37.3224 111.281 37.2675 111.232 37.215C111.184 37.163 111.135 37.1105 111.062 37.0638C110.931 36.9792 110.767 36.9136 110.613 36.8971C110.498 36.8834 110.387 36.8946 110.279 36.9175C110.148 36.9457 110.021 36.9982 109.918 37.0448C109.579 37.2174 109.334 37.4196 109.104 37.632C108.859 37.8343 108.655 38.053 108.44 38.2747C107.636 39.1482 106.932 40.0747 106.245 41.023C105.629 41.8936 105.028 42.773 104.453 43.6606L104.515 43.1332C104.531 43.0301 104.537 42.9407 104.516 42.8454C104.45 42.5338 104.182 42.2776 103.833 42.2271C103.741 42.2091 103.655 42.2149 103.571 42.2329C103.248 42.302 102.98 42.5722 102.929 42.9212L102.904 43.1011C102.521 43.6747 102.101 44.2356 101.673 44.7674C101.188 45.3721 100.681 45.9311 100.116 46.4527C99.5751 46.969 98.966 47.4623 98.3156 47.701C98.2461 47.7287 98.1625 47.7467 98.0906 47.7618C97.8388 47.8157 97.5986 47.8041 97.3906 47.7107C97.1364 47.5771 96.938 47.2932 96.7946 46.9733C96.693 46.7322 96.6269 46.4829 96.571 46.2194C96.4714 45.7523 96.4315 45.2725 96.3917 44.7922C96.3557 44.0359 96.3673 43.2693 96.415 42.4949C96.4801 41.742 96.5608 40.9477 96.5676 40.1573C96.5696 39.7558 96.5715 39.3548 96.5205 38.9396L96.4782 38.6232C96.4578 38.5274 96.4349 38.4195 96.3999 38.3145C96.3421 38.1011 96.2667 37.8668 96.0815 37.6432C95.996 37.5358 95.872 37.425 95.7174 37.3452C95.5653 37.2777 95.3845 37.2529 95.2357 37.2597L95.0773 37.2811C94.8376 37.3321 94.6709 37.4298 94.5037 37.529C94.1056 37.7764 93.8163 38.0642 93.5266 38.351C92.9647 38.9469 92.4849 39.5759 92.0226 40.2254C91.1068 41.5106 90.2756 42.8405 89.4857 44.187C88.6982 45.5447 87.9399 46.9223 87.2054 48.2941L87.3863 47.0283C87.6711 45.0756 87.9652 43.1084 88.3006 41.1582C88.9709 37.2568 89.7069 33.367 90.628 29.5249L91.136 27.5621C91.2891 27.5169 91.4296 27.4119 91.5215 27.2544C92.5394 25.5088 93.6574 23.8799 94.736 22.1834C95.2561 21.3337 95.7855 20.469 96.1817 19.508C96.2794 19.261 96.3771 19.0146 96.4257 18.7161C96.4548 18.5596 96.4724 18.4055 96.4408 18.1989L96.4374 18.1245C96.4194 18.0409 96.3873 17.9476 96.3333 17.8718C96.257 17.7503 96.1476 17.6477 96.0222 17.5874L95.8458 17.5247L95.6776 17.498L95.4277 17.5014C95.3888 17.497 95.3412 17.5067 95.3052 17.5145L95.1735 17.5427C94.7671 17.6919 94.9008 17.6137 94.5357 17.8416C94.4026 17.9204 94.3126 18.0273 94.1935 18.1153C93.7755 18.5056 93.4785 18.9324 93.2102 19.3777C92.9418 19.8235 92.7002 20.276 92.4849 20.7349C92.0547 21.6536 91.6916 22.5952 91.3557 23.544C91.0125 24.5186 90.7107 25.5108 90.421 26.4995L90.3646 26.587C90.2795 26.7177 90.2625 26.8718 90.2785 27.006C90.0651 27.7658 89.8634 28.5231 89.6617 29.2795C88.6564 33.14 87.8344 37.0361 87.0776 40.9428C86.7208 42.7832 86.3825 44.6231 86.0568 46.4663C85.1813 46.9096 84.2996 47.3185 83.4095 47.6383C82.9215 47.8172 82.4286 47.9732 81.9371 48.0777L81.4049 48.1667C81.5035 47.807 81.5633 47.4434 81.609 47.0705C81.6367 46.7891 81.6523 46.5101 81.6411 46.2238C81.6387 46.0366 81.6095 45.8422 81.5662 45.639C81.5458 45.5428 81.5249 45.447 81.4904 45.3415C81.3908 45.0499 81.206 44.7135 80.8527 44.5258C80.4968 44.3261 80.0982 44.3363 79.7866 44.4024C79.1518 44.538 78.584 44.8719 78.1679 45.3867C77.7757 45.8961 77.5321 46.5742 77.606 47.2733L77.6352 47.4672C77.694 47.7428 77.8034 48.0204 77.9701 48.2731C78.1709 48.5677 78.4358 48.8122 78.7362 48.9862C79.1674 49.2453 79.6272 49.3469 80.0749 49.3897L79.8557 49.712C79.565 50.112 79.2233 50.4484 78.8441 50.6667C78.6749 50.7532 78.5053 50.8392 78.3138 50.8801L78.254 50.8927C78.0625 50.9335 77.8481 50.9297 77.7037 50.8981C77.554 50.8422 77.4719 50.8096 77.4101 50.6978C77.3805 50.6161 77.3333 50.5136 77.3076 50.3935L77.2867 50.235C77.2551 49.8534 77.3353 49.3479 77.467 48.9692C77.4806 48.9163 77.4947 48.8633 77.4962 48.8127C77.5141 48.7208 77.5059 48.6226 77.4879 48.539C77.4189 48.2153 77.1486 47.9475 76.7904 47.911C76.7014 47.9047 76.6124 47.8993 76.5288 47.9168C76.2571 47.9747 76.0282 48.1837 75.9309 48.4554C71.6475 48.07 67.3339 47.9251 63.0232 48.0179C63.6711 44.9487 63.9803 42.1138 63.9501 39.0383C63.9229 36.915 63.7844 35.8549 63.4111 33.9299C62.5594 29.9401 60.5591 26.1451 56.7404 24.3923C54.6638 23.4069 52.5775 23.2018 50.4523 23.2791C49.0387 23.4055 47.5955 23.5129 46.2417 23.8021L45.1995 24.0248C42.2518 24.6538 38.8915 26.0474 36.338 27.407C26.8655 32.3851 17.7099 42.019 11.7528 50.2054C11.638 50.4304 11.5705 50.5826 11.6239 50.8344C11.7134 51.2534 12.1523 51.5485 12.5713 51.4585C12.7872 51.4123 12.9821 51.2704 13.1022 51.0697L13.0997 51.0575C15.0111 47.806 17.9937 43.7617 20.5005 41.0094C25.1228 35.7256 30.6371 31.0411 36.6034 27.8892C39.1957 26.534 42.4108 25.2211 45.3342 24.5974L46.4847 24.3519C46.7842 24.2877 47.0768 24.2503 47.3816 24.2105L48.4034 24.0675C51.1746 23.7268 53.9896 23.8274 56.4366 25.0213C59.8193 26.6672 61.683 29.9396 62.5064 33.7977C62.8696 35.499 63.0027 37.2368 62.9993 39.0417C62.9862 42.3263 62.5925 44.941 61.9163 48.0539C56.3656 48.2245 50.8975 48.8404 45.5174 49.9886C39.0835 51.3618 32.736 53.4933 26.9058 56.4041C19.4447 60.1256 12.2845 65.5504 7.19513 72.0481C5.95218 73.6794 5.83163 73.8175 4.7384 75.5042C4.34952 76.088 4.00683 76.7122 3.64663 77.3154L3.14692 78.2613C1.60454 81.071 0.498677 84.4007 0.144799 87.3207C-0.0894985 89.2748 -0.0384585 90.4536 0.290628 92.2881C0.873456 95.02 2.41972 97.3333 4.91923 98.6535C7.5665 100.08 10.4772 100.16 13.3807 99.8542C15.0835 99.616 14.1842 99.7453 16.0158 99.404C17.0599 99.1313 16.586 99.2572 17.5728 99.0093C20.57 98.1436 22.932 97.1763 25.4825 95.9805C32.9596 92.3926 39.7086 87.3319 45.673 80.8226C53.3849 72.349 60.0813 60.9354 62.7305 49.3455C67.1428 49.3265 71.5371 49.5662 75.9115 50.0503C75.9314 50.1937 75.9557 50.3381 75.9873 50.4873C76.0661 50.7965 76.2172 51.1523 76.4831 51.459C76.5488 51.5324 76.6149 51.6063 76.6926 51.6773L76.9639 51.8323C77.0509 51.8887 77.1549 51.9043 77.2487 51.9339C77.343 51.9641 77.4393 52.0064 77.5263 52.0005C77.8194 52.0253 78.0498 51.9884 78.2895 51.9373L78.5291 51.8863C78.8354 51.7959 79.1144 51.636 79.3642 51.4571C79.8523 51.1027 80.2334 50.6579 80.5323 50.1806C80.6898 49.9215 80.8332 49.6527 80.964 49.3868C81.2231 49.3693 81.4894 49.3251 81.7529 49.2687L82.2414 49.152C82.5025 49.084 82.7703 48.9887 83.0289 48.909L83.7916 48.6086C84.511 48.2902 85.2047 47.9159 85.874 47.5124C85.5756 49.2351 85.2873 50.9608 85.0127 52.6947C84.9971 52.7982 85.0059 52.8969 85.0263 52.9922C85.0749 53.2201 85.2192 53.4272 85.4443 53.5424C85.6232 53.6163 85.8035 53.6406 85.9712 53.6051C86.223 53.5517 86.4393 53.3927 86.5346 53.1341C87.7887 50.323 89.1343 47.5309 90.5818 44.8044C91.3066 43.4467 92.044 42.0866 92.8733 40.8072C93.2879 40.168 93.7288 39.5346 94.2003 38.9834C94.4419 38.7058 94.6981 38.439 94.9601 38.2576C95.0816 38.1818 95.1934 38.1196 95.2775 38.1021L95.3013 38.0967C95.3757 38.0933 95.3995 38.088 95.4656 38.1619C95.5313 38.2358 95.6124 38.3811 95.6577 38.5342C95.6873 38.6159 95.7053 38.6995 95.7233 38.7831L95.7797 39.0466C95.8297 39.3995 95.8613 39.7811 95.8662 40.1558C95.8783 40.9176 95.8137 41.6705 95.7831 42.4667C95.7622 43.2479 95.7554 44.0383 95.7991 44.8301C95.839 45.3109 95.8788 45.7907 95.9809 46.2699C96.0475 46.5815 96.1379 46.8878 96.2667 47.1984C96.4495 47.5858 96.6974 47.9834 97.1475 48.2134C97.4956 48.3772 97.8611 48.3869 98.1965 48.3149C98.3044 48.2921 98.3978 48.2595 98.4911 48.2275C99.3043 47.9285 99.9319 47.4064 100.521 46.8795C101.318 46.1319 102.036 45.3235 102.71 44.4806L102.338 47.1308C102.331 47.2198 102.338 47.3058 102.355 47.3899C102.404 47.6174 102.533 47.8152 102.735 47.9353C102.918 48.034 103.126 48.0646 103.317 48.0238C103.533 47.9776 103.728 47.8361 103.836 47.6373C104.926 45.6385 106.08 43.6514 107.317 41.7585C107.941 40.8111 108.58 39.8729 109.29 39.0325C109.47 38.8186 109.653 38.6164 109.84 38.439C110.025 38.2494 110.227 38.0812 110.397 37.9942L110.499 37.9475C110.521 37.9927 110.549 38.0622 110.567 38.1463C110.59 38.2538 110.603 38.3762 110.605 38.5012C110.668 39.2648 110.621 39.3373 110.559 40.1646C110.533 40.746 110.521 41.338 110.534 41.9233C110.547 42.51 110.597 43.1001 110.713 43.7019C110.777 44.0013 110.853 44.2983 110.98 44.5973C111.118 44.8938 111.3 45.2176 111.671 45.4266C111.82 45.4825 111.796 45.4878 111.955 45.5287C112.049 45.5588 112.16 45.5476 112.261 45.551L112.539 45.5039L112.78 45.4028C113.086 45.2496 113.331 45.0469 113.552 44.8496C113.986 44.4184 114.348 43.9406 114.685 43.4676C115.331 42.5027 115.875 41.4722 116.393 40.4344C116.409 40.3935 116.413 40.3547 116.406 40.3192L116.405 40.3197ZM92.2458 23.8415C92.5602 22.9097 92.9044 21.9973 93.304 21.1101C93.4974 20.6678 93.7206 20.2444 93.9607 19.8424C94.2125 19.438 94.4789 19.0428 94.7924 18.7502C94.9397 18.6189 95.1108 18.4813 95.2731 18.422C95.3067 18.4026 95.3543 18.3924 95.3903 18.3846L95.5099 18.3588L95.6081 18.3506C95.6066 18.4011 95.61 18.476 95.592 18.5674C95.5585 18.7618 95.4793 18.9796 95.4005 19.1964C95.0466 20.0612 94.5528 20.9181 94.0424 21.7542C93.409 22.7784 92.708 23.7798 91.959 24.7291C92.0465 24.435 92.1461 24.138 92.2453 23.8415H92.2458ZM61.0929 51.2986C59.5636 56.6359 57.2965 61.7424 54.5544 66.562C47.7048 78.5467 37.5211 88.9384 25.0251 95.0127C24.4019 95.3213 23.7593 95.5965 23.1308 95.8803C20.3668 97.135 18.5095 97.7061 15.7942 98.4241C14.1448 98.7386 15.0203 98.6142 13.2694 98.8625C10.4719 99.1965 7.72886 99.0808 5.35768 97.8335C3.05943 96.6323 1.68426 94.5334 1.15247 92.0412C0.275073 87.9312 1.70662 82.6654 3.9062 78.6502L4.38938 77.7456C5.836 75.3069 6.07565 74.9053 7.85719 72.5706C16.2088 61.8687 29.6804 54.7338 43.0004 51.6403L44.6609 51.2607C50.5077 50.0124 55.8664 49.4704 61.6174 49.3576C61.4429 50.0085 61.281 50.657 61.0924 51.2986H61.0929ZM80.9401 46.9869C80.8808 47.4132 80.7681 47.8259 80.6295 48.2309L80.5552 48.2343C80.0914 48.2333 79.6573 48.138 79.3428 47.9548C79.0813 47.7851 78.8956 47.5615 78.8344 47.2742L78.8183 47.1396C78.7323 46.444 79.2408 45.5967 80.0297 45.3026C80.0992 45.2754 80.159 45.2623 80.2188 45.2496C80.4827 45.1932 80.6636 45.2798 80.822 45.6093C80.8663 45.7007 80.9017 45.8057 80.927 45.9253C80.996 46.2486 80.9888 46.6263 80.9406 46.9869H80.9401Z" fill="#464646"></path><path d="M167.164 28.4964L167.212 28.4862C167.44 28.4371 167.647 28.3549 167.841 28.263C168.031 28.1595 168.208 28.0462 168.367 27.9121C168.517 27.792 168.663 27.6603 168.793 27.5067C168.925 27.3657 169.031 27.2175 169.154 27.0279C169.213 26.9525 170.529 24.8954 170.094 25.2794L168.658 26.533L168.219 26.7032C168.065 26.7484 167.924 26.7916 167.781 26.8223C167.637 26.8534 167.505 26.8816 167.368 26.8859C167.246 26.8995 167.121 26.901 167.008 26.9005C166.943 26.8893 166.871 26.9049 166.8 26.9204C166.383 27.0225 166.11 27.4445 166.203 27.8756L166.209 27.8999C166.313 28.3287 166.733 28.5892 167.164 28.4964Z" fill="#464646"></path><path d="M201.562 9.75058L201.547 9.67864C201.462 9.28344 201.088 9.00054 200.66 9.05449C198.917 9.27956 197.168 9.48031 195.428 9.66697L192.815 10.0418C191.954 10.1769 191.083 10.2639 190.216 10.4263C187.565 10.8817 186.997 10.9692 186.236 11.1175L186.505 10.0719C186.658 10.0267 186.798 9.9212 186.889 9.76371C187.904 8.01668 189.019 6.38534 190.095 4.68741C190.614 3.83675 191.142 2.97053 191.536 2.00903C191.633 1.76209 191.73 1.51564 191.779 1.21718C191.808 1.06017 191.825 0.906079 191.793 0.699975L191.79 0.625602C191.772 0.541994 191.739 0.448664 191.685 0.372833C191.609 0.250823 191.499 0.149229 191.373 0.0884672L191.197 0.0257609L191.029 -0.000488281L190.779 0.00340048C190.74 -0.000974377 190.692 0.00923362 190.656 0.0170111L190.525 0.0456908C190.118 0.195894 190.252 0.116661 189.887 0.345612C189.754 0.424359 189.664 0.5313 189.546 0.619769C189.128 1.01059 188.832 1.43787 188.564 1.88362C188.297 2.32937 188.056 2.78241 187.841 3.24225C187.413 4.16146 187.052 5.104 186.717 6.05334C186.376 7.02893 186.075 8.02106 185.787 9.01075L185.73 9.09824C185.646 9.229 185.629 9.38309 185.645 9.51774C185.476 10.1258 185.314 10.732 185.153 11.3382C184.571 11.4587 183.757 11.6289 182.473 11.8928C181.888 12.0309 181.316 12.1665 180.734 12.3167L180.897 11.6177C181.062 11.5696 181.202 11.4646 181.277 11.2852C182.226 9.1138 183.359 7.10234 184.369 4.98053C184.618 4.45069 184.853 3.91112 185.042 3.33169C185.131 3.04927 185.218 2.75421 185.247 2.42221C185.245 2.29777 185.253 2.15826 185.222 2.01438C185.209 1.95459 185.196 1.89431 185.171 1.83744C185.124 1.73487 185.009 1.60897 184.871 1.55113C184.748 1.50252 184.633 1.48988 184.522 1.50106L184.376 1.5205C184.208 1.55647 184.084 1.62113 183.977 1.70668C183.823 1.80244 183.712 1.92688 183.601 2.05083C183.39 2.2968 183.219 2.54665 183.076 2.81546C182.773 3.33169 182.529 3.88536 182.309 4.43416C181.533 6.4184 180.957 8.45951 180.432 10.5026C180.382 10.5633 180.333 10.6241 180.286 10.697C180.255 10.7286 180.227 10.7724 180.201 10.8278C180.152 10.9512 180.139 11.0669 180.165 11.1865C180.175 11.2346 180.198 11.2798 180.22 11.3255L179.937 12.514L179.913 12.5194C176.52 13.3501 173.174 14.3962 169.89 15.6173L167.441 16.5831C166.627 16.9336 165.805 17.2481 165.008 17.6205C164.196 17.9831 163.404 18.3793 162.609 18.7633C161.861 19.1871 161.62 19.2897 160.824 19.7238C160.626 19.8541 160.435 19.9581 160.217 20.1054L160.067 20.2254C159.885 20.4272 159.82 20.7047 159.874 20.9565C159.905 21.1004 159.989 21.2579 160.113 21.3687C160.318 21.5632 160.581 21.6186 160.832 21.5646C160.988 21.5311 161.136 21.4616 161.258 21.3347C161.512 21.0552 161.839 20.7713 162.169 20.5001C162.499 20.2284 162.846 19.978 163.191 19.716C163.538 19.4662 163.9 19.2256 164.261 18.984C164.611 18.7458 164.992 18.5382 165.368 18.3073C166.833 17.4285 166.093 17.8883 167.657 17.0624C168.44 16.6808 169.23 16.3352 170.03 15.9755C173.19 14.6436 176.511 13.7157 179.835 12.9121C179.444 14.5882 179.079 16.2706 178.714 17.9534C177.859 22.0012 177.091 26.0707 176.365 30.1437C176.339 30.1782 176.315 30.2152 176.288 30.2555C175.71 31.934 174.977 33.595 174.106 35.1364C173.67 35.9069 173.193 36.6613 172.636 37.3326C172.103 37.9986 171.482 38.6091 170.794 39.0203C170.484 39.2118 170.15 39.3465 169.814 39.4189L169.718 39.4393C169.357 39.505 169.003 39.4933 168.728 39.3766C168.172 39.1832 167.808 38.4842 167.615 37.6991L167.573 37.5076C167.416 36.777 167.383 35.9817 167.386 35.1797C167.402 34.3242 167.47 33.4195 167.605 32.5888L167.618 32.5358C167.636 32.4444 167.631 32.3579 167.612 32.2738C167.543 31.9506 167.262 31.6973 166.913 31.6472C166.824 31.6414 166.735 31.6351 166.652 31.6535C166.328 31.7231 166.063 32.0065 166.025 32.353C165.946 32.9942 165.905 33.6169 165.89 34.241C165.757 34.4855 165.62 34.7276 165.476 34.9648C165.213 35.3727 164.947 35.7679 164.649 36.1324C164.354 36.5092 164.028 36.8553 163.665 37.1464C163.362 37.3744 163.032 37.5834 162.685 37.6578L162.49 37.687C162.087 37.7365 161.719 37.5392 161.472 37.2048C161.212 36.8718 161.057 36.4421 160.959 35.9866C160.864 35.5438 160.814 35.0781 160.811 34.6022C160.812 34.1385 160.821 33.6602 160.882 33.1833C160.933 32.7215 161.019 32.2514 161.086 31.7479C161.141 31.2472 161.2 30.7591 161.184 30.223C161.18 30.0859 161.164 29.9517 161.142 29.7933C161.099 29.6523 161.075 29.4822 160.906 29.2799C160.823 29.1852 160.663 29.0816 160.497 29.0675C160.42 29.0593 160.334 29.0651 160.274 29.0777L160.121 29.1234C159.927 29.2148 159.82 29.3013 159.704 29.401C159.284 29.7797 158.997 30.1923 158.71 30.605C158.421 31.0056 158.148 31.428 157.902 31.8567C156.945 33.4667 156.724 33.9523 155.779 35.7348C155.572 36.1679 155.335 36.5826 155.096 36.9846C154.854 37.3749 154.576 37.773 154.313 38.0049L154.248 38.0559L154.234 38.0467C154.207 37.9776 154.165 37.8989 154.132 37.8056C154.092 37.6763 154.064 37.5445 154.033 37.4011C153.973 37.1255 153.93 36.8091 153.89 36.5043C153.84 36.0386 153.814 35.5686 153.797 35.0834C153.783 34.61 153.783 34.1462 153.785 33.6324C153.779 33.3704 153.758 33.0992 153.708 32.8095L153.694 32.687L153.659 32.5815C153.641 32.4979 153.611 32.4167 153.581 32.3355C153.551 32.2544 153.504 32.1518 153.448 32.0633C153.376 31.9661 153.32 31.8781 153.198 31.7785C152.994 31.585 152.622 31.4897 152.368 31.5315L152.234 31.5476C152.042 31.5889 151.909 31.6681 151.785 31.7323C151.485 31.9102 151.273 32.093 151.077 32.286C150.683 32.6714 150.355 33.0676 150.053 33.4711C149.436 34.2678 148.888 35.1004 148.367 35.9394C148.075 36.3905 147.811 36.8489 147.543 37.2947L147.595 36.8951C147.612 36.8037 147.604 36.7046 147.586 36.621C147.516 36.2977 147.26 36.0396 146.911 35.989C146.82 35.9715 146.733 35.9774 146.649 35.9953C146.462 36.0357 146.301 36.1388 146.186 36.2817C146.078 36.2583 145.962 36.2559 145.839 36.2826L145.71 36.323C139.82 38.5935 133.998 41.0624 128.262 43.7009C128.242 43.6674 128.211 43.6363 128.179 43.6061C127.872 43.3461 127.603 43.1414 127.303 43.0301C126.194 42.5926 125.057 42.6111 124.099 42.6422C122.012 42.7283 119.753 43.1764 117.813 43.5945C113.333 44.5584 109.115 45.8048 104.432 47.1634C97.1161 49.3275 89.8621 51.6661 82.5474 53.7796C77.6305 55.2136 71.8387 56.8367 66.6409 57.9557C63.8624 58.5541 60.5384 59.1816 57.6345 59.255C55.4971 59.3391 52.9631 59.0951 52.636 57.5746C52.5252 57.0593 52.654 56.4925 52.8494 55.8864C53.1498 55.0702 53.6164 54.2682 54.1142 53.4962C55.588 51.2617 57.7244 48.9595 59.5998 47.0769C67.1119 39.5327 77.0564 30.7747 85.4314 24.7364C92.1915 19.873 100.423 14.8551 108.088 13.2048C113.573 12.024 119.395 12.463 123.683 16.7785C126.114 19.2251 127.735 22.7984 128.447 26.1043C128.605 26.8976 128.677 27.1703 128.785 28.0244C128.857 28.4725 128.897 28.9523 128.913 29.3752C128.919 29.4617 128.909 29.4136 128.929 29.5094C129.022 29.9405 129.421 30.2186 129.878 30.1326C130.273 30.0475 130.554 29.6615 130.499 29.2343C130.424 28.7112 130.324 28.2446 130.221 27.7653C130.118 27.2865 129.99 26.812 129.863 26.3381C128.221 20.5137 124.931 15.2439 119.358 13.0473C115.64 11.4918 111.285 11.7528 107.692 12.5257C103.212 13.4901 98.7786 15.4219 94.5252 17.7284C81.6214 24.7918 68.1157 36.8601 58.7273 46.2243C57.3774 47.58 56.0644 48.9906 54.8438 50.4815C53.6568 51.9529 52.374 53.6197 51.6944 55.4703C51.4664 56.1586 51.2356 56.9475 51.4237 57.822C51.4956 58.1574 51.6278 58.4797 51.8291 58.7747C52.5237 59.7902 53.7166 60.148 54.6946 60.3259C55.6994 60.5106 56.6944 60.5344 57.6671 60.5135C60.8131 60.4002 64.0942 59.8062 67.0405 59.1719C72.2383 58.0529 78.0058 56.4357 82.9042 55.0304C90.2379 52.8876 97.5322 50.6783 104.852 48.5891C108.982 47.3996 112.534 46.4342 116.879 45.4868C118.388 45.1621 119.902 44.8608 121.411 44.6493C123.005 44.431 125.15 44.2074 126.35 44.6012C112.478 51.1212 98.0232 59.3075 85.1475 68.4208C79.2303 72.6017 72.5479 77.712 67.3632 82.8506C66.0012 84.2092 64.6712 85.5985 63.5391 87.2079C63.2523 87.6211 62.9913 88.0406 62.7652 88.5029C62.5412 88.9773 62.3083 89.4658 62.3594 90.1687C62.4857 90.7559 62.5028 90.7773 62.9509 91.1696C63.2859 91.3859 63.5965 91.4316 63.8925 91.4681C64.4768 91.505 64.9852 91.4209 65.4786 91.3271C66.4727 91.1132 67.3934 90.7895 68.3082 90.4424C70.9171 89.4046 73.7243 87.9482 76.0886 86.6494C82.7933 82.9254 89.184 78.7299 95.4692 74.3944C101.537 70.1557 107.71 65.7065 113.944 60.8436C116.956 58.4777 119.934 56.0696 122.765 53.4428C124.173 52.1245 125.559 50.7615 126.819 49.2244C127.443 48.4511 128.045 47.6441 128.499 46.6068C128.56 46.4814 128.603 46.3336 128.647 46.1863C128.794 45.7664 128.725 45.9691 128.8 45.5019C128.832 45.0688 128.849 45.0902 128.759 44.6712L128.754 44.6469C134.367 42.2033 140.062 39.9711 145.831 37.9708L145.367 41.3341C145.35 41.4255 145.358 41.5237 145.377 41.6078C145.426 41.8353 145.582 42.0395 145.796 42.1566C145.977 42.2431 146.158 42.267 146.338 42.2285C146.565 42.1795 146.77 42.022 146.872 41.8003C147.728 40.0742 148.635 38.35 149.594 36.69C150.092 35.8563 150.594 35.046 151.145 34.2887C151.413 33.9051 151.711 33.5406 152.009 33.2382C152.151 33.0822 152.301 32.9626 152.422 32.8863C152.444 32.9315 152.455 32.9791 152.47 33.0511C152.509 33.23 152.531 33.4516 152.542 33.6747C152.553 34.136 152.563 34.6474 152.594 35.1423C152.625 35.6366 152.659 36.1436 152.729 36.6423C152.774 36.9082 152.807 37.1766 152.866 37.4527C152.917 37.6923 152.984 37.9412 153.076 38.1969C153.131 38.3359 153.186 38.4744 153.282 38.629C153.39 38.7812 153.5 38.9455 153.757 39.0908C153.956 39.1982 154.223 39.2157 154.426 39.172L154.556 39.1316C154.761 39.0373 154.913 38.9294 155.03 38.8293C155.489 38.4044 155.733 37.9636 156 37.5173C156.256 37.074 156.475 36.638 156.692 36.1908L157.324 34.8764C157.751 34.0072 158.193 33.1478 158.675 32.3049C158.912 31.8908 159.148 31.4766 159.414 31.0809C159.668 30.6877 159.945 30.2896 160.249 30.011C160.277 29.9673 160.323 29.9454 160.353 29.9138C160.368 29.923 160.373 29.9469 160.376 29.959C160.396 30.0548 160.405 30.1535 160.416 30.2638C160.437 30.7105 160.401 31.182 160.353 31.656C160.305 32.1299 160.235 32.6209 160.191 33.1191C160.148 33.6174 160.144 34.1195 160.151 34.6192C160.167 35.0416 160.218 35.4568 160.309 35.8758L160.365 36.1392C160.483 36.6278 160.68 37.1367 161.023 37.5645C161.357 38.0063 161.973 38.3116 162.544 38.227L162.726 38.2003C163.229 38.0919 163.621 37.8197 163.973 37.5309C164.376 37.1936 164.71 36.8207 165.011 36.4178C165.316 36.0265 165.573 35.5948 165.834 35.1753C165.851 35.1457 165.867 35.115 165.884 35.0849C165.884 35.1199 165.884 35.1549 165.884 35.1899C165.912 35.9608 165.976 36.724 166.146 37.5144C166.185 37.6943 166.223 37.8741 166.276 38.0632C166.418 38.5464 166.61 39.031 166.922 39.4909C166.998 39.6119 167.096 39.7164 167.181 39.8234C167.282 39.9395 167.389 40.029 167.498 40.1315C167.739 40.3177 167.999 40.4747 168.283 40.5763C168.839 40.7703 169.386 40.7523 169.889 40.6444L169.973 40.6264C170.5 40.5131 170.977 40.2851 171.394 40.0071C172.253 39.4588 172.911 38.7282 173.476 37.9801C174.039 37.2198 174.506 36.4178 174.94 35.5846C175.205 35.0635 175.452 34.5351 175.684 34.0014C175.021 37.8143 174.394 41.6287 173.781 45.4587L173.775 45.4849C173.769 45.5739 173.775 45.6604 173.793 45.744C173.865 46.0794 174.133 46.3346 174.491 46.3701C174.583 46.3881 174.669 46.3817 174.753 46.3638C175.077 46.2943 175.332 46.0264 175.38 45.6652C175.637 43.367 175.93 41.0605 176.25 38.7612C176.555 36.4518 176.874 34.1526 177.22 31.8601C177.91 27.2626 178.653 22.6793 179.525 18.1177C179.864 16.3153 180.242 14.5172 180.646 12.726L181.317 12.5816C182.541 12.3181 183.772 12.0931 185.007 11.8923C184.02 15.7223 183.211 19.5867 182.468 23.4624C181.718 27.371 181.041 31.2759 180.424 35.2186C180.409 35.3221 180.418 35.4208 180.438 35.5161C180.487 35.744 180.632 35.9506 180.857 36.0653C181.036 36.1392 181.216 36.1631 181.384 36.1271C181.635 36.0731 181.851 35.9137 181.946 35.6551C183.195 32.8421 184.536 30.0475 185.979 27.3181C186.701 25.9594 187.436 24.5984 188.263 23.3175C188.677 22.6773 189.117 22.0434 189.587 21.4908C189.828 21.2132 190.083 20.9454 190.345 20.764C190.467 20.6877 190.579 20.626 190.663 20.608L190.687 20.6027C190.761 20.5993 190.785 20.5939 190.851 20.6678C190.917 20.7412 190.999 20.8861 191.044 21.0397C191.074 21.1213 191.092 21.2049 191.11 21.2885L191.167 21.552C191.217 21.9039 191.249 22.286 191.255 22.6608C191.268 23.4225 191.205 24.1755 191.176 24.9717C191.157 25.7528 191.151 26.5432 191.196 27.3356C191.237 27.8153 191.278 28.2956 191.381 28.7744C191.448 29.086 191.539 29.3922 191.668 29.7028C191.852 30.0893 192.1 30.4869 192.55 30.7159C192.899 30.8787 193.264 30.8879 193.599 30.8155C193.707 30.7922 193.8 30.7596 193.893 30.7271C194.706 30.4266 195.333 29.9036 195.921 29.3762C197.078 28.2878 198.069 27.0716 199 25.8058L199.009 25.7912C199.078 25.7013 199.093 25.5978 199.075 25.5137C199.055 25.4179 199.001 25.3421 198.916 25.2974C198.84 25.2381 198.751 25.2322 198.656 25.2531C198.572 25.2711 198.481 25.3158 198.425 25.4033C198.011 26.0435 197.545 26.6701 197.07 27.2612C196.587 27.8674 196.08 28.4268 195.516 28.9494C194.976 29.4666 194.368 29.961 193.718 30.2011C193.649 30.2283 193.565 30.2463 193.493 30.2623C193.241 30.3163 193.001 30.3056 192.793 30.2128C192.539 30.0796 192.34 29.7962 192.196 29.4763C192.094 29.2352 192.028 28.9859 191.971 28.7224C191.871 28.2553 191.83 27.7755 191.79 27.2957C191.752 26.5393 191.762 25.7728 191.809 24.9979C191.873 24.245 191.952 23.4512 191.957 22.6598C191.959 22.2583 191.96 21.8573 191.908 21.4426L191.865 21.1262C191.844 21.0304 191.822 20.9225 191.786 20.8175C191.728 20.6041 191.652 20.3698 191.467 20.1467C191.381 20.0398 191.257 19.9289 191.102 19.8492C190.95 19.7821 190.769 19.7578 190.62 19.7651L190.462 19.7865C190.222 19.838 190.056 19.9367 189.889 20.0354C189.491 20.2838 189.203 20.5715 188.913 20.8593C188.352 21.4562 187.874 22.0857 187.412 22.7366C186.499 24.0233 185.67 25.3547 184.882 26.7022C184.097 28.0618 183.341 29.4404 182.609 30.8131L182.788 29.5463C183.069 27.5937 183.36 25.626 183.692 23.6743C184.355 19.7724 185.084 15.8807 185.999 12.0372L186.08 11.7241C187.486 11.5122 188.896 11.3289 190.31 11.1598C192.055 10.9969 193.785 10.8876 195.526 10.7636C197.267 10.7019 199.004 10.679 200.744 10.6683L200.866 10.6547L200.926 10.6416C201.334 10.5541 201.613 10.1677 201.562 9.75301L201.562 9.75058ZM187.608 6.35035C187.921 5.41802 188.264 4.50464 188.661 3.61703C188.854 3.17469 189.077 2.75081 189.316 2.34832C189.567 1.94341 189.833 1.54773 190.146 1.2551C190.293 1.12336 190.464 0.986285 190.626 0.925523C190.66 0.906079 190.707 0.895871 190.743 0.888094L190.864 0.862331L190.962 0.853095C190.96 0.904135 190.964 0.978508 190.946 1.07038C190.913 1.26482 190.834 1.48307 190.756 1.70036C190.403 2.56561 189.911 3.42357 189.402 4.26014C188.77 5.28531 188.071 6.28813 187.324 7.23893C187.411 6.94484 187.509 6.64735 187.609 6.35035H187.608ZM182.896 4.65776C183.107 4.12354 183.332 3.59905 183.604 3.11392C183.74 2.87185 183.875 2.62929 184.048 2.44214C184.197 2.25937 184.38 2.11986 184.524 2.08875L184.56 2.08097C184.596 2.07319 184.637 2.08924 184.637 2.08924L184.651 2.09896L184.659 2.13493C184.672 2.19423 184.677 2.28124 184.675 2.38235C184.652 2.62443 184.586 2.90247 184.503 3.15816C184.343 3.69432 184.12 4.23097 183.883 4.75838C183.229 6.20257 182.456 7.62197 181.565 8.95436C181.94 7.4951 182.369 6.04945 182.896 4.65776ZM125.375 48.0432C123.129 50.7075 119.918 53.4287 117.147 55.6919C112.919 59.2215 107.908 62.9566 103.597 66.1021C97.2921 70.6928 91.5503 74.8742 84.9628 79.2622C80.5461 82.205 75.2875 85.6057 70.3833 88.0897C68.7875 88.884 66.8878 89.7823 65.2283 90.1643L65.0246 90.2081C64.2819 90.368 63.5352 90.3909 63.4677 90.0793C63.3811 89.5592 63.8094 88.64 64.3907 87.7878C65.4135 86.2523 66.688 84.8372 67.9849 83.4679C70.622 80.7574 73.488 78.2356 76.4274 75.8236C91.9723 63.2167 110.72 52.6767 126.959 45.4465C126.758 46.2043 126.109 47.1459 125.374 48.0437L125.375 48.0432Z" fill="#464646"></path></g><defs><clipPath id="clip0_530_33"><rect width="201.569" height="100" fill="white"></rect></clipPath></defs></svg>