<svg width="64" height="64" viewBox="0 0 64 64" fill="none" xmlns="http://www.w3.org/2000/svg">
<g clip-path="url(#clip0_1539_78)">
<path d="M56 43C57.1 43 58 43.9 58 45C58 45.55 57.78 46.05 57.41 46.41C57.05 46.78 56.55 47 56 47H47H19H10C8.9 47 8 46.1 8 45V5H7C5.9 5 5 5.9 5 7C5 7.55 4.78 8.05 4.41 8.41C4.05 8.78 3.55 9 3 9C2.45 9 1.95 8.78 1.59 8.41C1.22 8.05 1 7.55 1 7C1 5.34 1.67 3.84 2.76 2.76C3.84 1.67 5.34 1 7 1H10C11.1 1 12 1.9 12 3V41C12 42.1 12.9 43 14 43H17H56Z" fill="#605979"/>
<path d="M58 45C58 45.55 57.78 46.05 57.41 46.41C57.05 46.78 56.55 47 56 47H10C8.9 47 8 46.1 8 45H54C54.55 45 55.05 44.78 55.41 44.41C55.78 44.05 56 43.55 56 43C57.1 43 58 43.9 58 45Z" fill="#524B75"/>
<path d="M52 52V53.41C51.39 53.15 50.71 53 50 53C49.29 53 48.61 53.15 48 53.41V52C48 51.46 47.54 51 47 51H19C18.46 51 18 51.46 18 52V53.41C17.39 53.15 16.71 53 16 53C15.29 53 14.61 53.15 14 53.41V52C14 49.24 16.24 47 19 47H47C49.76 47 52 49.24 52 52Z" fill="#524B75"/>
<path d="M52 52V53.41C51.99 53.4 51.97 53.4 51.96 53.39C51.66 50.92 49.55 49 47 49H19C16.45 49 14.34 50.92 14.04 53.39C14.03 53.4 14.01 53.4 14 53.41V52C14 49.24 16.24 47 19 47H47C49.76 47 52 49.24 52 52Z" fill="#3C3666"/>
<path d="M50 60C51.1046 60 52 59.1046 52 58C52 56.8954 51.1046 56 50 56C48.8954 56 48 56.8954 48 58C48 59.1046 48.8954 60 50 60Z" fill="#3D3F42"/>
<path d="M16 60C17.1046 60 18 59.1046 18 58C18 56.8954 17.1046 56 16 56C14.8954 56 14 56.8954 14 58C14 59.1046 14.8954 60 16 60Z" fill="#3D3F42"/>
<path d="M52 53.42C53.76 54.19 55 55.95 55 58C55 60.76 52.76 63 50 63C47.24 63 45 60.76 45 58C45 55.95 46.24 54.19 48 53.42V53.41C48.61 53.15 49.29 53 50 53C50.71 53 51.39 53.15 52 53.41V53.42ZM52 58C52 56.9 51.1 56 50 56C48.9 56 48 56.9 48 58C48 59.1 48.9 60 50 60C51.1 60 52 59.1 52 58Z" fill="#53565C"/>
<path d="M18 53.42C19.76 54.19 21 55.95 21 58C21 60.76 18.76 63 16 63C13.24 63 11 60.76 11 58C11 55.95 12.24 54.19 14 53.42V53.41C14.61 53.15 15.29 53 16 53C16.71 53 17.39 53.15 18 53.41V53.42ZM18 58C18 56.9 17.1 56 16 56C14.9 56 14 56.9 14 58C14 59.1 14.9 60 16 60C17.1 60 18 59.1 18 58Z" fill="#53565C"/>
<path d="M63 24V42C63 42.55 62.55 43 62 43H56H17C16.45 43 16 42.55 16 42V24C16 23.45 16.45 23 17 23H37V28H42V23H43H54H62C62.55 23 63 23.45 63 24ZM60 40V36H55V40H60Z" fill="#E89A10"/>
<path d="M61.9999 23H60.4969C60.5249 27.867 60.2599 32.492 57.7939 36H59.9999V40H54.9999V38.64C49.6489 41.888 42.3139 42.198 34.8989 43H55.9999H61.9999C62.5499 43 62.9999 42.55 62.9999 42V24C62.9999 23.45 62.5499 23 61.9999 23Z" fill="#C97700"/>
<path d="M60 36H55V40H60V36Z" fill="#EAE8E8"/>
<path d="M55 12V22C55 22.55 54.55 23 54 23H43C42.45 23 42 22.55 42 22V16V12C42 11.45 42.45 11 43 11H47V14H50V11H54C54.55 11 55 11.45 55 12Z" fill="#E89A10"/>
<path d="M54 11H53.508C52.97 15.461 52.186 20.342 49.395 23H54C54.55 23 55 22.55 55 22V12C55 11.45 54.55 11 54 11Z" fill="#C97700"/>
<path d="M50 11H47V14H50V11Z" fill="#EAE8E8"/>
<path d="M42 23V28H37V23H41H42Z" fill="#EAE8E8"/>
<path d="M41 1H31V6H27V1H17C16.45 1 16 1.45 16 2V22C16 22.55 16.45 23 17 23H37H41C41.55 23 42 22.55 42 22V16V12V2C42 1.45 41.55 1 41 1ZM39 20H37H35V16H39V20Z" fill="#E89A10"/>
<path d="M41.0002 1H38.6812C37.6562 9.324 35.1822 18.89 27.9072 23H37.0002H41.0002C41.5502 23 42.0002 22.55 42.0002 22V16V12V2C42.0002 1.45 41.5502 1 41.0002 1ZM39.0002 20H37.0002H35.0002V16H39.0002V20Z" fill="#C97700"/>
<path d="M39 16V20H37H35V16H39Z" fill="#EAE8E8"/>
<path d="M31 1H27V6H31V1Z" fill="#EAE8E8"/>
<path d="M28 35H20C19.448 35 19 35.448 19 36C19 36.552 19.448 37 20 37H28C28.552 37 29 36.552 29 36C29 35.448 28.552 35 28 35Z" fill="#472B3C"/>
<path d="M28 38H20C19.448 38 19 38.448 19 39C19 39.552 19.448 40 20 40H28C28.552 40 29 39.552 29 39C29 38.448 28.552 38 28 38Z" fill="#472B3C"/>
<path d="M19 17H27C27.552 17 28 16.552 28 16C28 15.448 27.552 15 27 15H19C18.448 15 18 15.448 18 16C18 16.552 18.448 17 19 17Z" fill="#472B3C"/>
<path d="M19 20H27C27.552 20 28 19.552 28 19C28 18.448 27.552 18 27 18H19C18.448 18 18 18.448 18 19C18 19.552 18.448 20 19 20Z" fill="#472B3C"/>
<path d="M47 21C47.553 21 48 20.552 48 20C48 19.448 47.553 19 47 19H45C44.447 19 44 19.448 44 20C44 20.552 44.447 21 45 21H47Z" fill="#472B3C"/>
<path d="M16 55C14.346 55 13 56.346 13 58C13 59.654 14.346 61 16 61C17.654 61 19 59.654 19 58C19 56.346 17.654 55 16 55ZM16 59C15.449 59 15 58.551 15 58C15 57.449 15.449 57 16 57C16.551 57 17 57.449 17 58C17 58.551 16.551 59 16 59Z" fill="#472B3C"/>
<path d="M50 55C48.346 55 47 56.346 47 58C47 59.654 48.346 61 50 61C51.654 61 53 59.654 53 58C53 56.346 51.654 55 50 55ZM50 59C49.448 59 49 58.551 49 58C49 57.449 49.448 57 50 57C50.552 57 51 57.449 51 58C51 58.551 50.552 59 50 59Z" fill="#472B3C"/>
<path d="M62 22H56V12C56 10.897 55.103 10 54 10H45C44.447 10 44 10.448 44 11C44 11.552 44.447 12 45 12H46V14C46 14.552 46.447 15 47 15H50C50.553 15 51 14.552 51 14V12H54V22H43V2C43 0.897 42.103 0 41 0H17C15.897 0 15 0.897 15 2V5.562C15 6.114 15.448 6.562 16 6.562C16.552 6.562 17 6.114 17 5.562V2H26V6C26 6.552 26.448 7 27 7H31C31.552 7 32 6.552 32 6V2H41V22H17V8.5C17 7.948 16.552 7.5 16 7.5C15.448 7.5 15 7.948 15 8.5V22C15 22.366 15.106 22.705 15.278 23C15.106 23.295 15 23.634 15 24V42H14C13.449 42 13 41.551 13 41V3C13 1.346 11.654 0 10 0H7C3.14 0 0 3.14 0 7C0 8.654 1.346 10 3 10C4.654 10 6 8.654 6 7C6 6.449 6.449 6 7 6V45C7 46.654 8.346 48 10 48H14.542C14.121 48.469 13.763 49.001 13.501 49.599C13.279 50.105 13.51 50.695 14.016 50.916C14.521 51.138 15.111 50.909 15.333 50.401C15.973 48.943 17.412 48 19 48H47C49.206 48 51 49.794 51 52V52.09C50.674 52.035 50.341 52 50 52C49.659 52 49.326 52.035 49 52.09V52C49 50.897 48.103 50 47 50H19C17.897 50 17 50.897 17 52V52.09C16.674 52.035 16.341 52 16 52C12.691 52 10 54.691 10 58C10 61.309 12.691 64 16 64C19.309 64 22 61.309 22 58C22 55.785 20.79 53.851 19 52.812V52H47V52.812C45.21 53.851 44 55.785 44 58C44 61.309 46.691 64 50 64C53.309 64 56 61.309 56 58C56 55.785 54.79 53.851 53 52.812V52C53 50.462 52.414 49.063 51.46 48H56C57.654 48 59 46.654 59 45C59 44.648 58.928 44.314 58.816 44H62C63.103 44 64 43.103 64 42V24C64 22.897 63.103 22 62 22ZM49 13H48V12H49V13ZM30 5H28V2H30V5ZM16 62C13.794 62 12 60.206 12 58C12 55.794 13.794 54 16 54C18.206 54 20 55.794 20 58C20 60.206 18.206 62 16 62ZM50 62C47.794 62 46 60.206 46 58C46 55.794 47.794 54 50 54C52.206 54 54 55.794 54 58C54 60.206 52.206 62 50 62ZM57 45C57 45.551 56.552 46 56 46H10C9.449 46 9 45.551 9 45V5C9 4.448 8.552 4 8 4H7C5.346 4 4 5.346 4 7C4 7.551 3.551 8 3 8C2.449 8 2 7.551 2 7C2 4.243 4.243 2 7 2H10C10.551 2 11 2.449 11 3V41C11 42.654 12.346 44 14 44H56C56.552 44 57 44.449 57 45ZM17 42V24H41V27H38V26C38 25.448 37.553 25 37 25C36.447 25 36 25.448 36 26V28C36 28.552 36.447 29 37 29H42C42.553 29 43 28.552 43 28V24H62L62.001 42H17Z" fill="#472B3C"/>
<path d="M60 35H55C54.447 35 54 35.448 54 36V40C54 40.552 54.447 41 55 41H60C60.553 41 61 40.552 61 40V36C61 35.448 60.553 35 60 35ZM59 39H56V37H59V39Z" fill="#472B3C"/>
<path d="M39 21C39.553 21 40 20.552 40 20V16C40 15.448 39.553 15 39 15H35C34.447 15 34 15.448 34 16V20C34 20.552 34.447 21 35 21H39ZM36 17H38V19H36V17Z" fill="#472B3C"/>
</g>
<defs>
<clipPath id="clip0_1539_78">
<rect width="64" height="64" fill="white"/>
</clipPath>
</defs>
</svg>
